<svg xmlns="http://www.w3.org/2000/svg" width="980" height="520" viewBox="0 0 980 520">
<rect width="100%" height="100%" fill="white"/>
<text x="490.0" y="30" text-anchor="middle" font-size="20" font-family="Arial">Pairwise positional base-rating coefficient cosine (position mean)</text>
<line x1="75" y1="445.0" x2="950" y2="445.0" stroke="#ddd"/>
<text x="67" y="449.0" text-anchor="end" font-size="11" fill="#444" font-family="Arial">1.0</text>
<line x1="75" y1="369.0" x2="950" y2="369.0" stroke="#ddd"/>
<text x="67" y="373.0" text-anchor="end" font-size="11" fill="#444" font-family="Arial">1.0</text>
<line x1="75" y1="293.0" x2="950" y2="293.0" stroke="#ddd"/>
<text x="67" y="297.0" text-anchor="end" font-size="11" fill="#444" font-family="Arial">1.0</text>
<line x1="75" y1="217.0" x2="950" y2="217.0" stroke="#ddd"/>
<text x="67" y="221.0" text-anchor="end" font-size="11" fill="#444" font-family="Arial">1.0</text>
<line x1="75" y1="141.0" x2="950" y2="141.0" stroke="#ddd"/>
<text x="67" y="145.0" text-anchor="end" font-size="11" fill="#444" font-family="Arial">1.0</text>
<line x1="75" y1="65.0" x2="950" y2="65.0" stroke="#ddd"/>
<text x="67" y="69.0" text-anchor="end" font-size="11" fill="#444" font-family="Arial">1.0</text>
<line x1="75.0" y1="65" x2="75.0" y2="445" stroke="#f0f0f0"/>
<text x="75.0" y="465" text-anchor="middle" font-size="10" fill="#444" font-family="Arial">16</text>
<line x1="200.0" y1="65" x2="200.0" y2="445" stroke="#f0f0f0"/>
<text x="200.0" y="465" text-anchor="middle" font-size="10" fill="#444" font-family="Arial">17</text>
<line x1="325.0" y1="65" x2="325.0" y2="445" stroke="#f0f0f0"/>
<text x="325.0" y="465" text-anchor="middle" font-size="10" fill="#444" font-family="Arial">18</text>
<line x1="450.0" y1="65" x2="450.0" y2="445" stroke="#f0f0f0"/>
<text x="450.0" y="465" text-anchor="middle" font-size="10" fill="#444" font-family="Arial">19</text>
<line x1="575.0" y1="65" x2="575.0" y2="445" stroke="#f0f0f0"/>
<text x="575.0" y="465" text-anchor="middle" font-size="10" fill="#444" font-family="Arial">20</text>
<line x1="700.0" y1="65" x2="700.0" y2="445" stroke="#f0f0f0"/>
<text x="700.0" y="465" text-anchor="middle" font-size="10" fill="#444" font-family="Arial">21</text>
<line x1="825.0" y1="65" x2="825.0" y2="445" stroke="#f0f0f0"/>
<text x="825.0" y="465" text-anchor="middle" font-size="10" fill="#444" font-family="Arial">22</text>
<line x1="950.0" y1="65" x2="950.0" y2="445" stroke="#f0f0f0"/>
<text x="950.0" y="465" text-anchor="middle" font-size="10" fill="#444" font-family="Arial">23</text>
<line x1="75" y1="445" x2="950" y2="445" stroke="#333"/><line x1="75" y1="65" x2="75" y2="445" stroke="#333"/>
<polyline points="75.0,417.7 200.0,414.9 200.0,91.3 325.0,413.6 325.0,91.5 325.0,91.2 450.0,415.7 450.0,91.4 450.0,91.4 450.0,91.4 575.0,416.6 575.0,92.6 575.0,92.5 575.0,92.4 575.0,92.2 700.0,415.7 700.0,92.3 700.0,92.2 700.0,92.2 700.0,91.9 700.0,91.2 825.0,418.8 825.0,92.3 825.0,92.2 825.0,92.2 825.0,92.0 825.0,91.5 825.0,91.4 950.0,417.2 950.0,92.0 950.0,92.0 950.0,91.9 950.0,91.8 950.0,91.6 950.0,91.6 950.0,91.4" fill="none" stroke="#1769aa" stroke-width="2"/>
<circle cx="75.0" cy="417.7" r="3" fill="#1769aa"/>
<circle cx="200.0" cy="414.9" r="3" fill="#1769aa"/>
<circle cx="200.0" cy="91.3" r="3" fill="#1769aa"/>
<circle cx="325.0" cy="413.6" r="3" fill="#1769aa"/>
<circle cx="325.0" cy="91.5" r="3" fill="#1769aa"/>
<circle cx="325.0" cy="91.2" r="3" fill="#1769aa"/>
<circle cx="450.0" cy="415.7" r="3" fill="#1769aa"/>
<circle cx="450.0" cy="91.4" r="3" fill="#1769aa"/>
<circle cx="450.0" cy="91.4" r="3" fill="#1769aa"/>
<circle cx="450.0" cy="91.4" r="3" fill="#1769aa"/>
<circle cx="575.0" cy="416.6" r="3" fill="#1769aa"/>
<circle cx="575.0" cy="92.6" r="3" fill="#1769aa"/>
<circle cx="575.0" cy="92.5" r="3" fill="#1769aa"/>
<circle cx="575.0" cy="92.4" r="3" fill="#1769aa"/>
<circle cx="575.0" cy="92.2" r="3" fill="#1769aa"/>
<circle cx="700.0" cy="415.7" r="3" fill="#1769aa"/>
<circle cx="700.0" cy="92.3" r="3" fill="#1769aa"/>
<circle cx="700.0" cy="92.2" r="3" fill="#1769aa"/>
<circle cx="700.0" cy="92.2" r="3" fill="#1769aa"/>
<circle cx="700.0" cy="91.9" r="3" fill="#1769aa"/>
<circle cx="700.0" cy="91.2" r="3" fill="#1769aa"/>
<circle cx="825.0" cy="418.8" r="3" fill="#1769aa"/>
<circle cx="825.0" cy="92.3" r="3" fill="#1769aa"/>
<circle cx="825.0" cy="92.2" r="3" fill="#1769aa"/>
<circle cx="825.0" cy="92.2" r="3" fill="#1769aa"/>
<circle cx="825.0" cy="92.0" r="3" fill="#1769aa"/>
<circle cx="825.0" cy="91.5" r="3" fill="#1769aa"/>
<circle cx="825.0" cy="91.4" r="3" fill="#1769aa"/>
<circle cx="950.0" cy="417.2" r="3" fill="#1769aa"/>
<circle cx="950.0" cy="92.0" r="3" fill="#1769aa"/>
<circle cx="950.0" cy="92.0" r="3" fill="#1769aa"/>
<circle cx="950.0" cy="91.9" r="3" fill="#1769aa"/>
<circle cx="950.0" cy="91.8" r="3" fill="#1769aa"/>
<circle cx="950.0" cy="91.6" r="3" fill="#1769aa"/>
<circle cx="950.0" cy="91.6" r="3" fill="#1769aa"/>
<circle cx="950.0" cy="91.4" r="3" fill="#1769aa"/>
<line x1="85" y1="50" x2="103" y2="50" stroke="#1769aa" stroke-width="3"/><text x="108" y="54" font-size="11" font-family="Arial">mean across position codes</text>
<text transform="translate(18 260.0) rotate(-90)" text-anchor="middle" font-size="12" font-family="Arial">cosine</text>
</svg>